<svg xmlns="http://www.w3.org/2000/svg" viewBox="0 0 16 16"><path d="M8 1a7 7 0 01.24 13.996L8 15A7 7 0 018 1zm3.19 8.033h-.39a.257.257 0 00-.104.021l-.046.026-.765.545-.087.055-.093.044-1.27.507a.258.258 0 00-.154.178l-.007.062v.329c0 .046.012.09.034.129l.041.054.384.384a.517.517 0 00.284.145l.081.006h.334l.063-.004.062-.011.686-.172a.864.864 0 01.735.153l.085.074.42.42a.517.517 0 00.283.145l.081.006h.49l.018-.001c.306-.324.577-.681.806-1.066v-.551a.516.516 0 00-.098-.303l-.053-.062-.385-.384a.258.258 0 01-.066-.116l-.009-.067v-.417a.129.129 0 00-.088-.123l-.041-.006h-.196a.129.129 0 00-.105.055l-.018.038-.136.467a.129.129 0 01-.082.086l-.042.006h-.122a.129.129 0 01-.1-.046l-.02-.033-.172-.414a.258.258 0 00-.177-.152l-.061-.007zM8 2a6 6 0 00-5.912 7.032h1.57c.109 0 .215-.035.302-.098l.062-.053.628-.628a.258.258 0 01.378.014l.036.053.73 1.459c.074.15.216.253.378.279l.083.007h.197a.516.516 0 00.508-.424l.008-.093v-.302a.516.516 0 00-.098-.303l-.053-.062-.183-.182a.258.258 0 01-.042-.31l.042-.055.183-.183a.517.517 0 01.283-.145l.198-.017a.516.516 0 00.286-.17l.05-.07.56-.934a.143.143 0 01.219-.032l.073.101c.036.04.083.067.136.078l.053.006h.1a.258.258 0 00.25-.2l.007-.058V4.19a.516.516 0 00-.214-.42l-.07-.042-.35-.174a.258.258 0 01-.081-.399l.053-.047 1.18-.906A6.008 6.008 0 008 2z" fill="#262626" fill-rule="nonzero" fill-opacity=".75"/></svg>